<svg width="30" height="38" viewBox="0 0 30 38" fill="none" xmlns="http://www.w3.org/2000/svg">
<path d="M29.6673 34.3332C29.6673 35.99 28.3242 37.3332 26.6673 37.3332H3.33399C1.67713 37.3332 0.333984 35.99 0.333984 34.3332V3.66651C0.333984 2.00965 1.67713 0.666504 3.33398 0.666504H20.5007L29.6673 9.83317V34.3332ZM18.6673 11.6665H26.0007L18.6673 4.33317V11.6665ZM15.0007 31.8332C17.0479 31.8332 18.7822 31.1151 20.2037 29.679C21.6251 28.2429 22.3352 26.5165 22.334 24.4998V17.1665H18.6673V24.4998C18.6673 25.5082 18.3159 26.3717 17.6132 27.0903C16.9104 27.809 16.0395 28.1677 15.0007 28.1665C13.9923 28.1665 13.1288 27.8072 12.4102 27.0885C11.6915 26.3698 11.3328 25.5069 11.334 24.4998V14.4165C11.334 14.1415 11.4257 13.9197 11.609 13.751C11.7923 13.5823 12.0062 13.4986 12.2507 13.4998C12.5257 13.4998 12.7475 13.5842 12.9162 13.7528C13.0848 13.9215 13.1685 14.1427 13.1673 14.4165V24.4998H16.834V14.4165C16.834 13.1332 16.3909 12.0484 15.5048 11.1623C14.6187 10.2762 13.534 9.83317 12.2507 9.83317C10.9673 9.83317 9.8826 10.2762 8.99649 11.1623C8.11037 12.0484 7.66732 13.1332 7.66732 14.4165V24.4998C7.66732 26.5165 8.38537 28.2429 9.82148 29.679C11.2576 31.1151 12.984 31.8332 15.0007 31.8332Z" fill="#667085"/>
</svg>
