<svg width="30" height="38" viewBox="0 0 30 38" fill="none" xmlns="http://www.w3.org/2000/svg">
<path fill-rule="evenodd" clip-rule="evenodd" d="M15.0007 0.666504V12.5832C15.0007 13.3125 15.2904 14.012 15.8061 14.5277C16.3218 15.0434 17.0213 15.3332 17.7507 15.3332H29.6673V33.6665C29.6673 34.639 29.281 35.5716 28.5934 36.2592C27.9057 36.9469 26.9731 37.3332 26.0007 37.3332H4.00065C3.02819 37.3332 2.09556 36.9469 1.40793 36.2592C0.720293 35.5716 0.333984 34.639 0.333984 33.6665V4.33317C0.333984 3.36071 0.720293 2.42808 1.40793 1.74045C2.09556 1.05281 3.02819 0.666504 4.00065 0.666504H15.0007ZM18.7847 20.1897L17.7507 22.9452L16.889 20.648C16.2345 18.9027 13.7668 18.9027 13.1123 20.648L12.2507 22.9452L11.2167 20.1897C11.0371 19.7469 10.6917 19.3917 10.2542 19.1998C9.8166 19.0078 9.32138 18.9943 8.87399 19.1621C8.4266 19.3299 8.06239 19.6657 7.85892 20.098C7.65545 20.5303 7.6288 21.025 7.78465 21.4767L10.3623 28.3517C11.0168 30.097 13.4845 30.097 14.139 28.3517L15.0007 26.0545L15.8623 28.3517C16.5168 30.097 18.9845 30.097 19.639 28.3517L22.2167 21.4767C22.3725 21.025 22.3459 20.5303 22.1424 20.098C21.9389 19.6657 21.5747 19.3299 21.1273 19.1621C20.6799 18.9943 20.1847 19.0078 19.7471 19.1998C19.3096 19.3917 18.9642 19.7469 18.7847 20.1897ZM18.6673 0.745337C19.3619 0.892655 19.9988 1.23849 20.5007 1.74084L28.593 9.83317C29.0953 10.335 29.4412 10.9719 29.5885 11.6665H18.6673V0.745337Z" fill="#2E90FA"/>
</svg>
