<svg width="151" height="143" viewBox="0 0 151 143" fill="none" xmlns="http://www.w3.org/2000/svg">
<path d="M64.6476 142.249C99.8677 142.249 128.419 136.914 128.419 130.333C128.419 123.752 99.8677 118.417 64.6476 118.417C29.4275 118.417 0.875977 123.752 0.875977 130.333C0.875977 136.914 29.4275 142.249 64.6476 142.249Z" fill="#F5F5F7" fill-opacity="0.8"/>
<path fill-rule="evenodd" clip-rule="evenodd" d="M115.664 95.3263L93.1599 67.6295C92.08 66.3258 90.5017 65.5366 88.8396 65.5366H40.4538C38.7926 65.5366 37.2142 66.3258 36.1344 67.6295L13.6309 95.3263V109.796H115.665V95.3263H115.664Z" fill="#AEB8C2"/>
<path fill-rule="evenodd" clip-rule="evenodd" d="M32.6976 29.7896H96.5971C97.595 29.7896 98.552 30.186 99.2576 30.8916C99.9632 31.5972 100.36 32.5542 100.36 33.5521V121.354C100.36 122.352 99.9632 123.309 99.2576 124.014C98.552 124.72 97.595 125.116 96.5971 125.116H32.6976C31.6997 125.116 30.7427 124.72 30.0371 124.014C29.3315 123.309 28.9351 122.352 28.9351 121.354V33.5521C28.9351 32.5542 29.3315 31.5972 30.0371 30.8916C30.7427 30.186 31.6997 29.7896 32.6976 29.7896V29.7896Z" fill="#F5F5F7"/>
<path fill-rule="evenodd" clip-rule="evenodd" d="M41.02 39.1514H88.2742C88.7732 39.1514 89.2517 39.3496 89.6045 39.7024C89.9573 40.0552 90.1555 40.5337 90.1555 41.0326V64.5078C90.1555 65.0068 89.9573 65.4853 89.6045 65.8381C89.2517 66.1909 88.7732 66.3891 88.2742 66.3891H41.02C40.521 66.3891 40.0425 66.1909 39.6897 65.8381C39.3369 65.4853 39.1387 65.0068 39.1387 64.5078V41.0326C39.1387 40.5337 39.3369 40.0552 39.6897 39.7024C40.0425 39.3496 40.521 39.1514 41.02 39.1514ZM41.2664 76.6015H88.0278C88.5921 76.6015 89.1333 76.8256 89.5323 77.2247C89.9313 77.6237 90.1555 78.1649 90.1555 78.7292C90.1555 79.2935 89.9313 79.8346 89.5323 80.2337C89.1333 80.6327 88.5921 80.8569 88.0278 80.8569H41.2664C40.7021 80.8569 40.1609 80.6327 39.7619 80.2337C39.3629 79.8346 39.1387 79.2935 39.1387 78.7292C39.1387 78.1649 39.3629 77.6237 39.7619 77.2247C40.1609 76.8256 40.7021 76.6015 41.2664 76.6015ZM41.2664 87.666H88.0278C88.5922 87.666 89.1335 87.8903 89.5326 88.2894C89.9317 88.6885 90.156 89.2298 90.156 89.7942C90.156 90.3586 89.9317 90.8999 89.5326 91.2991C89.1335 91.6982 88.5922 91.9224 88.0278 91.9224H41.2664C40.702 91.9224 40.1607 91.6982 39.7616 91.2991C39.3625 90.8999 39.1383 90.3586 39.1383 89.7942C39.1383 89.2298 39.3625 88.6885 39.7616 88.2894C40.1607 87.8903 40.702 87.666 41.2664 87.666ZM115.456 128.585C114.727 131.474 112.167 133.627 109.121 133.627H20.1729C17.1271 133.627 14.5667 131.473 13.8387 128.585C13.6998 128.035 13.6297 127.469 13.6299 126.901V95.3275H38.3853C41.1197 95.3275 43.3236 97.6301 43.3236 100.426V100.463C43.3236 103.258 45.5529 105.514 48.2873 105.514H81.007C83.7414 105.514 85.9706 103.237 85.9706 100.442V100.43C85.9706 97.6348 88.1745 95.3265 90.9089 95.3265H115.664V126.902C115.664 127.483 115.592 128.046 115.456 128.585Z" fill="#DCE0E6"/>
<path fill-rule="evenodd" clip-rule="evenodd" d="M118.569 31.3153L112.144 33.808C111.979 33.8722 111.799 33.8885 111.625 33.855C111.452 33.8215 111.291 33.7396 111.161 33.6188C111.032 33.4979 110.939 33.3429 110.894 33.1717C110.849 33.0006 110.853 32.8201 110.905 32.651L112.727 26.8126C110.292 24.0433 108.862 20.6665 108.862 17.0225C108.862 7.62095 118.38 0 130.12 0C141.859 0 151.377 7.62095 151.377 17.0225C151.377 26.4241 141.859 34.045 130.12 34.045C125.86 34.045 121.895 33.0423 118.569 31.3153Z" fill="#DCE0E6"/>
<path d="M138.494 20.0965C139.974 20.0965 141.174 18.911 141.174 17.4486C141.174 15.9863 139.974 14.8008 138.494 14.8008C137.014 14.8008 135.814 15.9863 135.814 17.4486C135.814 18.911 137.014 20.0965 138.494 20.0965Z" fill="white"/>
<path fill-rule="evenodd" clip-rule="evenodd" d="M124.426 19.7654H119.066L121.792 15.1318L124.426 19.7654ZM127.775 15.1318H132.464V19.7654H127.775V15.1318Z" fill="white"/>
</svg>
