<svg width="173" height="143" viewBox="0 0 173 143" fill="none" xmlns="http://www.w3.org/2000/svg">
<path d="M86.6476 142.249C121.868 142.249 150.419 136.914 150.419 130.333C150.419 123.752 121.868 118.417 86.6476 118.417C51.4275 118.417 22.876 123.752 22.876 130.333C22.876 136.914 51.4275 142.249 86.6476 142.249Z" fill="#F5F5F7" fill-opacity="0.8"/>
<path fill-rule="evenodd" clip-rule="evenodd" d="M137.664 95.3263L115.16 67.6295C114.08 66.3258 112.502 65.5366 110.84 65.5366H62.4538C60.7926 65.5366 59.2142 66.3258 58.1344 67.6295L35.6309 95.3263V109.796H137.665V95.3263H137.664Z" fill="#AEB8C2"/>
<path fill-rule="evenodd" clip-rule="evenodd" d="M54.6976 29.7896H118.597C119.595 29.7896 120.552 30.186 121.258 30.8916C121.963 31.5972 122.36 32.5542 122.36 33.5521V121.354C122.36 122.352 121.963 123.309 121.258 124.014C120.552 124.72 119.595 125.116 118.597 125.116H54.6976C53.6997 125.116 52.7427 124.72 52.0371 124.014C51.3315 123.309 50.9351 122.352 50.9351 121.354V33.5521C50.9351 32.5542 51.3315 31.5972 52.0371 30.8916C52.7427 30.186 53.6997 29.7896 54.6976 29.7896V29.7896Z" fill="#F5F5F7"/>
<path fill-rule="evenodd" clip-rule="evenodd" d="M63.02 39.1514H110.274C110.773 39.1514 111.252 39.3496 111.604 39.7024C111.957 40.0552 112.155 40.5337 112.155 41.0326V64.5078C112.155 65.0068 111.957 65.4853 111.604 65.8381C111.252 66.1909 110.773 66.3891 110.274 66.3891H63.02C62.521 66.3891 62.0425 66.1909 61.6897 65.8381C61.3369 65.4853 61.1387 65.0068 61.1387 64.5078V41.0326C61.1387 40.5337 61.3369 40.0552 61.6897 39.7024C62.0425 39.3496 62.521 39.1514 63.02 39.1514ZM63.2664 76.6015H110.028C110.592 76.6015 111.133 76.8256 111.532 77.2247C111.931 77.6237 112.155 78.1649 112.155 78.7292C112.155 79.2935 111.931 79.8346 111.532 80.2337C111.133 80.6327 110.592 80.8569 110.028 80.8569H63.2664C62.7021 80.8569 62.1609 80.6327 61.7619 80.2337C61.3629 79.8346 61.1387 79.2935 61.1387 78.7292C61.1387 78.1649 61.3629 77.6237 61.7619 77.2247C62.1609 76.8256 62.7021 76.6015 63.2664 76.6015ZM63.2664 87.666H110.028C110.592 87.666 111.134 87.8903 111.533 88.2894C111.932 88.6885 112.156 89.2298 112.156 89.7942C112.156 90.3586 111.932 90.8999 111.533 91.2991C111.134 91.6982 110.592 91.9224 110.028 91.9224H63.2664C62.702 91.9224 62.1607 91.6982 61.7616 91.2991C61.3625 90.8999 61.1383 90.3586 61.1383 89.7942C61.1383 89.2298 61.3625 88.6885 61.7616 88.2894C62.1607 87.8903 62.702 87.666 63.2664 87.666ZM137.456 128.585C136.727 131.474 134.167 133.627 131.121 133.627H42.1729C39.1271 133.627 36.5667 131.473 35.8387 128.585C35.6998 128.035 35.6297 127.469 35.6299 126.901V95.3275H60.3853C63.1197 95.3275 65.3236 97.6301 65.3236 100.426V100.463C65.3236 103.258 67.5529 105.514 70.2873 105.514H103.007C105.741 105.514 107.971 103.237 107.971 100.442V100.43C107.971 97.6348 110.175 95.3265 112.909 95.3265H137.664V126.902C137.664 127.483 137.592 128.046 137.456 128.585Z" fill="#DCE0E6"/>
<path fill-rule="evenodd" clip-rule="evenodd" d="M140.569 31.3153L134.144 33.808C133.979 33.8722 133.799 33.8885 133.625 33.855C133.452 33.8215 133.291 33.7396 133.161 33.6188C133.032 33.4979 132.939 33.3429 132.894 33.1717C132.849 33.0006 132.853 32.8201 132.905 32.651L134.727 26.8126C132.292 24.0433 130.862 20.6665 130.862 17.0225C130.862 7.62095 140.38 0 152.12 0C163.859 0 173.377 7.62095 173.377 17.0225C173.377 26.4241 163.859 34.045 152.12 34.045C147.86 34.045 143.895 33.0423 140.569 31.3153Z" fill="#DCE0E6"/>
<path d="M160.494 20.0965C161.974 20.0965 163.174 18.911 163.174 17.4486C163.174 15.9863 161.974 14.8008 160.494 14.8008C159.014 14.8008 157.814 15.9863 157.814 17.4486C157.814 18.911 159.014 20.0965 160.494 20.0965Z" fill="white"/>
<path fill-rule="evenodd" clip-rule="evenodd" d="M146.426 19.7654H141.066L143.792 15.1318L146.426 19.7654ZM149.775 15.1318H154.464V19.7654H149.775V15.1318Z" fill="white"/>
</svg>
