<svg width="10" height="14" viewBox="0 0 10 14" fill="none" xmlns="http://www.w3.org/2000/svg">
<path d="M4.99967 3.3335C5.4417 3.3335 5.86563 3.50909 6.17819 3.82165C6.49075 4.13421 6.66634 4.55814 6.66634 5.00016C6.66634 5.21903 6.62323 5.43576 6.53947 5.63797C6.45572 5.84018 6.33295 6.02391 6.17819 6.17867C6.02342 6.33344 5.83969 6.4562 5.63748 6.53996C5.43527 6.62372 5.21854 6.66683 4.99967 6.66683C4.55765 6.66683 4.13372 6.49123 3.82116 6.17867C3.5086 5.86611 3.33301 5.44219 3.33301 5.00016C3.33301 4.55814 3.5086 4.13421 3.82116 3.82165C4.13372 3.50909 4.55765 3.3335 4.99967 3.3335ZM4.99967 0.333496C6.23735 0.333496 7.42434 0.825161 8.29951 1.70033C9.17468 2.5755 9.66634 3.76249 9.66634 5.00016C9.66634 8.50016 4.99967 13.6668 4.99967 13.6668C4.99967 13.6668 0.333008 8.50016 0.333008 5.00016C0.333008 3.76249 0.824673 2.5755 1.69984 1.70033C2.57501 0.825161 3.762 0.333496 4.99967 0.333496ZM4.99967 1.66683C4.11562 1.66683 3.26777 2.01802 2.64265 2.64314C2.01753 3.26826 1.66634 4.11611 1.66634 5.00016C1.66634 5.66683 1.66634 7.00016 4.99967 11.4735C8.33301 7.00016 8.33301 5.66683 8.33301 5.00016C8.33301 4.11611 7.98182 3.26826 7.3567 2.64314C6.73158 2.01802 5.88373 1.66683 4.99967 1.66683Z" fill="url(#paint0_linear_1548_16747)"/>
<defs>
<linearGradient id="paint0_linear_1548_16747" x1="9.66634" y1="7.00016" x2="0.328586" y2="6.93107" gradientUnits="userSpaceOnUse">
<stop stop-color="#2E82EE"/>
<stop offset="1" stop-color="#05DFA6"/>
</linearGradient>
</defs>
</svg>
