<svg width="38" height="38" viewBox="0 0 38 38" fill="none" xmlns="http://www.w3.org/2000/svg">
<path d="M16.2168 32.2236H21.7817V36.8868H16.2168V32.2236Z" fill="#EE2E2E"/>
<path d="M19 32.2236H21.7825V36.8868H19V32.2236Z" fill="#EE2E2E"/>
<path d="M11.1777 35.7734H26.8201V38H11.1777V35.7734Z" fill="#EE2E2E"/>
<path d="M19 35.7734H26.8212V38H19V35.7734Z" fill="#EE2E2E"/>
<path d="M27.9384 8.93371C27.9384 8.55668 26.8117 7.82043 26.8117 7.82043C26.8117 7.82043 27.7498 7.07008 27.6563 6.70715C26.6625 2.85445 23.1579 0 18.9995 0C14.841 0 11.3364 2.85445 10.3426 6.70715C10.2513 7.06266 11.1783 7.79891 11.1783 7.79891C11.1783 7.79891 10.0613 8.55 10.0605 8.93371V11.1788L11.1055 12.2921L10.0605 13.4054V15.6505L11.1055 16.7638L10.0605 17.8771V20.1222C10.0605 20.4992 11.1753 21.2355 11.1753 21.2355C11.1753 21.2355 10.2491 21.9858 10.3426 22.3487C11.3364 26.2022 14.841 29.0566 18.9995 29.0566C23.1579 29.0566 26.6625 26.2022 27.6563 22.3487C27.7484 21.9932 26.8088 21.257 26.8088 21.257C26.8088 21.257 27.9376 20.5059 27.9384 20.1222V17.8771L26.8815 16.7638L27.9384 15.6505V13.4054L26.8815 12.2921L27.9384 11.1788V8.93371Z" fill="#EE2E2E"/>
<path d="M27.9389 11.1788L26.882 12.2921L27.9389 13.4054V15.6505L26.882 16.7638L27.9389 17.8771V20.1222C27.9382 20.5059 26.8093 21.257 26.8093 21.257C26.8093 21.257 27.7489 21.9932 27.6569 22.3487C26.6631 26.2022 23.1585 29.0566 19 29.0566V0C23.1585 0 26.6631 2.85445 27.6569 6.70715C27.7504 7.07008 26.8123 7.82043 26.8123 7.82043C26.8123 7.82043 27.9389 8.55668 27.9389 8.93371V11.1788Z" fill="#EE2E2E"/>
<path d="M32.41 20.1177C32.41 27.5121 26.3939 33.5275 18.9995 33.5275C11.605 33.5275 5.58887 27.5121 5.58887 20.1177H7.81543C7.81543 26.2845 12.8326 31.301 18.9995 31.301C25.1663 31.301 30.1835 26.2845 30.1835 20.1177H32.41Z" fill="#EE2E2E"/>
<path d="M32.4106 20.1177C32.4106 27.5121 26.3944 33.5275 19 33.5275V31.301C25.1668 31.301 30.184 26.2845 30.184 20.1177H32.4106Z" fill="#EE2E2E"/>
<path d="M16.764 20.1221V22.3486H10.3426C10.1585 21.6369 10.0613 20.8902 10.0605 20.1221H16.764Z" fill="#E7EDFF"/>
<path d="M10.0605 15.6504H16.764V17.877H10.0605V15.6504Z" fill="#E7EDFF"/>
<path d="M10.0605 11.1787H16.764V13.4053H10.0605V11.1787Z" fill="#E7EDFF"/>
<path d="M16.764 6.70703V8.93359H10.0605C10.0613 8.16543 10.1593 7.41879 10.3426 6.70703H16.764Z" fill="#E7EDFF"/>
<path d="M27.9378 20.1221C27.9371 20.8902 27.8398 21.6369 27.6558 22.3486H21.2344V20.1221H27.9378Z" fill="#E7EDFF"/>
<path d="M21.2344 15.6504H27.9378V17.877H21.2344V15.6504Z" fill="#E7EDFF"/>
<path d="M21.2344 11.1787H27.9378V13.4053H21.2344V11.1787Z" fill="#E7EDFF"/>
<path d="M27.9378 8.93359H21.2344V6.70703H27.6558C27.8391 7.41879 27.9371 8.16543 27.9378 8.93359Z" fill="#E7EDFF"/>
</svg>
