<svg width="30" height="38" viewBox="0 0 30 38" fill="none" xmlns="http://www.w3.org/2000/svg">
<path d="M18.6673 0.666504H4.00065C3.02819 0.666504 2.09556 1.05281 1.40793 1.74045C0.720293 2.42808 0.333984 3.36071 0.333984 4.33317V33.6665C0.333984 34.639 0.720293 35.5716 1.40793 36.2592C2.09556 36.9469 3.02819 37.3332 4.00065 37.3332H26.0007C26.9731 37.3332 27.9057 36.9469 28.5934 36.2592C29.281 35.5716 29.6673 34.639 29.6673 33.6665V11.6665L18.6673 0.666504ZM10.4137 26.6815C9.84715 27.2132 9.01115 27.4515 8.03765 27.4515C7.84889 27.4536 7.66022 27.4425 7.47298 27.4185V30.0328H5.83398V22.8168C6.57365 22.7065 7.32104 22.6562 8.06882 22.6665C9.08998 22.6665 9.81598 22.8608 10.3055 23.2513C10.7712 23.6217 11.0865 24.2285 11.0865 24.9435C11.0847 25.6622 10.8463 26.269 10.4137 26.6815ZM17.3932 29.1657C16.6232 29.8055 15.4517 30.1098 14.0198 30.1098C13.1618 30.1098 12.555 30.0548 12.1425 29.9998V22.8187C12.8824 22.7107 13.6296 22.6598 14.3773 22.6665C15.7652 22.6665 16.6672 22.9158 17.3712 23.4475C18.132 24.0122 18.6087 24.9123 18.6087 26.2048C18.6087 27.6037 18.0972 28.5698 17.3932 29.1657ZM24.1673 24.0782H21.3587V25.7483H23.984V27.094H21.3587V30.0347H19.6977V22.7215H24.1673V24.0782ZM18.6673 13.4998H16.834V4.33317L26.0007 13.4998H18.6673Z" fill="#ED4C4C"/>
</svg>
