<svg width="12" height="12" viewBox="0 0 12 12" fill="none" xmlns="http://www.w3.org/2000/svg">
<path d="M11.3333 8.33333C10.5 8.33333 9.7 8.2 8.95333 7.95333C8.83612 7.916 8.71097 7.91116 8.59122 7.93934C8.47147 7.96751 8.36161 8.02765 8.27333 8.11333L6.80667 9.58C4.91413 8.61748 3.37585 7.07921 2.41333 5.18667L3.88 3.71333C3.9683 3.62956 4.03088 3.52235 4.0604 3.40427C4.08992 3.28619 4.08515 3.16214 4.04667 3.04667C3.79377 2.2787 3.66548 1.4752 3.66667 0.666667C3.66667 0.3 3.36667 0 3 0H0.666667C0.3 0 0 0.3 0 0.666667C0 6.92667 5.07333 12 11.3333 12C11.7 12 12 11.7 12 11.3333V9C12 8.63333 11.7 8.33333 11.3333 8.33333ZM10.6667 6H12C12 4.4087 11.3679 2.88258 10.2426 1.75736C9.11742 0.632141 7.5913 0 6 0V1.33333C8.58 1.33333 10.6667 3.42 10.6667 6ZM8 6H9.33333C9.33333 4.16 7.84 2.66667 6 2.66667V4C7.10667 4 8 4.89333 8 6Z" fill="url(#paint0_linear_1548_16743)"/>
<defs>
<linearGradient id="paint0_linear_1548_16743" x1="12" y1="6" x2="-0.00500063" y2="5.87311" gradientUnits="userSpaceOnUse">
<stop stop-color="#2E82EE"/>
<stop offset="1" stop-color="#05DFA6"/>
</linearGradient>
</defs>
</svg>