<svg width="15" height="18" viewBox="0 0 15 18" fill="none" xmlns="http://www.w3.org/2000/svg">
<path d="M0.666995 2.0931V15.9064C0.666995 16.9598 1.82699 17.5998 2.72033 17.0264L13.5737 10.1198C13.7637 9.99952 13.9202 9.83316 14.0286 9.63617C14.1371 9.43919 14.194 9.21797 14.194 8.9931C14.194 8.76823 14.1371 8.54702 14.0286 8.35003C13.9202 8.15305 13.7637 7.98669 13.5737 7.86644L2.72033 0.973104C2.51922 0.84303 2.28673 0.769647 2.04739 0.760695C1.80805 0.751744 1.57073 0.807557 1.36047 0.922246C1.1502 1.03693 0.974792 1.20625 0.852739 1.41232C0.730685 1.6184 0.666514 1.8536 0.666995 2.0931Z" fill="white"/>
</svg>
