<svg width="12" height="14" viewBox="0 0 12 14" fill="none" xmlns="http://www.w3.org/2000/svg">
<path d="M3.62476 1.87354H3.49976C3.56851 1.87354 3.62476 1.81729 3.62476 1.74854V1.87354H8.37476V1.74854C8.37476 1.81729 8.43101 1.87354 8.49976 1.87354H8.37476V2.99854H9.49976V1.74854C9.49976 1.19697 9.05132 0.748535 8.49976 0.748535H3.49976C2.94819 0.748535 2.49976 1.19697 2.49976 1.74854V2.99854H3.62476V1.87354ZM11.4998 2.99854H0.499756C0.223193 2.99854 -0.000244141 3.22197 -0.000244141 3.49854V3.99854C-0.000244141 4.06729 0.0560059 4.12354 0.124756 4.12354H1.06851L1.45444 12.2954C1.47944 12.8282 1.92007 13.2485 2.45288 13.2485H9.54663C10.081 13.2485 10.5201 12.8298 10.5451 12.2954L10.931 4.12354H11.8748C11.9435 4.12354 11.9998 4.06729 11.9998 3.99854V3.49854C11.9998 3.22197 11.7763 2.99854 11.4998 2.99854ZM9.42632 12.1235H2.57319L2.19507 4.12354H9.80445L9.42632 12.1235Z" fill="black" fill-opacity="0.45"/>
</svg>
