<svg width="37" height="36" viewBox="0 0 37 36" fill="none" xmlns="http://www.w3.org/2000/svg">
<path d="M35.9939 14.9114L35.9845 14.8739L30.7252 1.50986C30.4908 0.755176 29.7923 0.234863 29.0002 0.234863H7.68141C6.88453 0.234863 6.17672 0.764551 5.95172 1.52861L1.03453 14.7567L1.02047 14.7895L1.01109 14.827C0.950156 15.0567 0.931406 15.2911 0.964219 15.5208C0.959531 15.5958 0.954844 15.6708 0.954844 15.7458V32.8974C0.956083 33.6528 1.25675 34.377 1.79096 34.9112C2.32517 35.4455 3.04936 35.7461 3.80484 35.7474H33.2048C34.7752 35.7474 36.0548 34.4677 36.0595 32.8974V15.7458C36.0595 15.6849 36.0595 15.6239 36.0548 15.5724C36.0736 15.3427 36.0548 15.1224 35.9939 14.9114ZM22.1283 12.8958L22.1142 13.6317C22.0767 15.7364 20.6236 17.1521 18.5002 17.1521C17.4642 17.1521 16.5736 16.8192 15.9314 16.1864C15.2892 15.5536 14.9377 14.6724 14.9189 13.6317L14.9048 12.8958H5.25797L8.98453 3.83486H27.697L31.5267 12.8958H22.1283ZM4.55016 16.4958H11.9236C13.0627 19.1724 15.4861 20.7521 18.5048 20.7521C20.0845 20.7521 21.5517 20.3114 22.7377 19.477C23.7783 18.7458 24.5892 17.7239 25.1142 16.4958H32.4502V32.1474H4.55016V16.4958Z" fill="#EE2E2E"/>
</svg>
